<svg width="800" height="240" viewBox="0 0 800 240" fill="none" xmlns="http://www.w3.org/2000/svg">
<mask id="mask0_130_2" style="mask-type:alpha" maskUnits="userSpaceOnUse" x="0" y="0" width="800" height="240">
<rect width="800" height="240" fill="#F8B602"/>
</mask>
<g mask="url(#mask0_130_2)">
<rect width="800" height="240" fill="#F8B602"/>
<path opacity="0.25" d="M667.692 -28.5C667.692 50.2006 618.616 114 558.077 114C497.538 114 448.462 50.2006 448.462 -28.5C448.462 -107.201 497.538 -171 558.077 -171C618.616 -171 667.692 -107.201 667.692 -28.5ZM486 -28.5C486 23.2488 518.27 65.1995 558.077 65.1995C597.884 65.1995 630.153 23.2488 630.153 -28.5C630.153 -80.2488 597.884 -122.2 558.077 -122.2C518.27 -122.2 486 -80.2488 486 -28.5Z" fill="white"/>
<path opacity="0.25" d="M884.615 238.5C884.615 317.201 835.539 381 775 381C714.461 381 665.385 317.201 665.385 238.5C665.385 159.799 714.461 96 775 96C835.539 96 884.615 159.799 884.615 238.5ZM702.923 238.5C702.923 290.249 735.193 332.2 775 332.2C814.807 332.2 847.076 290.249 847.076 238.5C847.076 186.751 814.807 144.8 775 144.8C735.193 144.8 702.923 186.751 702.923 238.5Z" fill="white"/>
<path opacity="0.25" d="M134.615 280.5C134.615 359.201 85.5389 423 25 423C-35.5389 423 -84.6154 359.201 -84.6154 280.5C-84.6154 201.799 -35.5389 138 25 138C85.5389 138 134.615 201.799 134.615 280.5ZM-47.0766 280.5C-47.0766 332.249 -14.8068 374.2 25 374.2C64.8068 374.2 97.0766 332.249 97.0766 280.5C97.0766 228.751 64.8068 186.8 25 186.8C-14.8068 186.8 -47.0766 228.751 -47.0766 280.5Z" fill="white"/>
</g>
</svg>
